<?xml version="1.0" encoding="UTF-8"?>
<svg width="808px" height="400px" viewBox="0 0 808 400" version="1.1" xmlns="http://www.w3.org/2000/svg" xmlns:xlink="http://www.w3.org/1999/xlink">
    <title>SAP IDOC Diagnostic Nerdlet (1)</title>
    <g id="Page-1" stroke="none" stroke-width="1" fill="none" fill-rule="evenodd">
        <g id="SAP-IDOC-Diagnostic-Nerdlet-(1)">
            <g id="nodes">
                <g id="54" transform="translate(475.000000, 199.000000)">
                    <circle id="Oval" fill="#EE352E" cx="27.5" cy="27.5" r="27.5"></circle>
                    <text font-family="Menlo-Bold, Menlo" font-size="24" font-weight="bold" letter-spacing="0.456" fill="#FFFFFF">
                        <tspan x="13.0947813" y="36">54</tspan>
                    </text>
                </g>
                <g id="51" transform="translate(591.000000, 199.000000)">
                    <circle id="Oval" fill="#EE352E" cx="27.5" cy="27.5" r="27.5"></circle>
                    <text font-family="Menlo-Bold, Menlo" font-size="24" font-weight="bold" letter-spacing="0.456" fill="#FFFFFF">
                        <tspan x="13.0947813" y="36">51</tspan>
                    </text>
                </g>
                <g id="63" transform="translate(297.000000, 200.000000)">
                    <circle id="Oval" fill="#EE352E" cx="27.5" cy="27.5" r="27.5"></circle>
                    <text font-family="Menlo-Bold, Menlo" font-size="24" font-weight="bold" letter-spacing="0.456" fill="#FFFFFF">
                        <tspan x="13.0947813" y="36">63</tspan>
                    </text>
                </g>
                <g id="56" transform="translate(46.000000, 345.000000)">
                    <circle id="Oval" fill="#EE352E" cx="27.5" cy="27.5" r="27.5"></circle>
                    <text font-family="Menlo-Bold, Menlo" font-size="24" font-weight="bold" letter-spacing="0.456" fill="#FFFFFF">
                        <tspan x="13.0947813" y="36">56</tspan>
                    </text>
                </g>
                <g id="65" transform="translate(120.000000, 286.000000)">
                    <circle id="Oval" fill="#EE352E" cx="27.5" cy="27.5" r="27.5"></circle>
                    <text font-family="Menlo-Bold, Menlo" font-size="24" font-weight="bold" letter-spacing="0.456" fill="#FFFFFF">
                        <tspan x="13.0947813" y="36">65</tspan>
                    </text>
                </g>
                <g id="60" transform="translate(144.000000, 208.000000)">
                    <circle id="Oval" fill="#EE352E" cx="27.5" cy="27.5" r="27.5"></circle>
                    <text font-family="Menlo-Bold, Menlo" font-size="24" font-weight="bold" letter-spacing="0.456" fill="#FFFFFF">
                        <tspan x="13.0947813" y="36">60</tspan>
                    </text>
                </g>
                <g id="66" transform="translate(331.000000, 115.000000)">
                    <circle id="Oval" fill="#FCCC0A" cx="27.5" cy="27.5" r="27.5"></circle>
                    <text font-family="Menlo-Bold, Menlo" font-size="24" font-weight="bold" letter-spacing="0.456" fill="#000000">
                        <tspan x="13.0947813" y="36">66</tspan>
                    </text>
                </g>
                <g id="61" transform="translate(165.000000, 117.000000)">
                    <circle id="Oval" fill="#FCCC0A" cx="27.5" cy="27.5" r="27.5"></circle>
                    <text font-family="Menlo-Bold, Menlo" font-size="24" font-weight="bold" letter-spacing="0.456" fill="#000000">
                        <tspan x="13.0947813" y="36">61</tspan>
                    </text>
                </g>
                <g id="52" transform="translate(529.000000, 111.000000)">
                    <circle id="Oval" fill="#FCCC0A" cx="27.5" cy="27.5" r="27.5"></circle>
                    <text font-family="Menlo-Bold, Menlo" font-size="24" font-weight="bold" letter-spacing="0.456" fill="#000000">
                        <tspan x="13.0947813" y="36">52</tspan>
                    </text>
                </g>
                <g id="50" transform="translate(58.000000, 54.000000)">
                    <circle id="Oval" fill="#FCCC0A" cx="27.5" cy="27.5" r="27.5"></circle>
                    <text font-family="Menlo-Bold, Menlo" font-size="24" font-weight="bold" letter-spacing="0.456" fill="#000000">
                        <tspan x="13.0947813" y="36">50</tspan>
                    </text>
                </g>
                <g id="74">
                    <circle id="Oval" fill="#FCCC0A" cx="27.5" cy="27.5" r="27.5"></circle>
                    <text font-family="Menlo-Bold, Menlo" font-size="24" font-weight="bold" letter-spacing="0.456" fill="#000000">
                        <tspan x="13.0947813" y="36">74</tspan>
                    </text>
                </g>
                <g id="62" transform="translate(403.000000, 54.000000)">
                    <circle id="Oval" fill="#FCCC0A" cx="27.5" cy="27.5" r="27.5"></circle>
                    <text font-family="Menlo-Bold, Menlo" font-size="24" font-weight="bold" letter-spacing="0.456" fill="#000000">
                        <tspan x="13.0947813" y="36">62</tspan>
                    </text>
                </g>
                <g id="64" transform="translate(231.000000, 54.000000)">
                    <circle id="Oval" fill="#FCCC0A" cx="27.5" cy="27.5" r="27.5"></circle>
                    <text font-family="Menlo-Bold, Menlo" font-size="24" font-weight="bold" letter-spacing="0.456" fill="#000000">
                        <tspan x="13.0947813" y="36">64</tspan>
                    </text>
                </g>
                <g id="68" transform="translate(753.000000, 345.000000)">
                    <circle id="Oval" fill="#00933C" cx="27.5" cy="27.5" r="27.5"></circle>
                    <text font-family="Menlo-Bold, Menlo" font-size="24" font-weight="bold" letter-spacing="0.456" fill="#000000">
                        <tspan x="13.0947813" y="36">68</tspan>
                    </text>
                </g>
                <g id="53" transform="translate(704.000000, 54.000000)">
                    <circle id="Oval" fill="#00933C" cx="27.5" cy="27.5" r="27.5"></circle>
                    <text font-family="Menlo-Bold, Menlo" font-size="24" font-weight="bold" letter-spacing="0.456" fill="#000000">
                        <tspan x="13.0947813" y="36">53</tspan>
                    </text>
                </g>
            </g>
            <g id="links" transform="translate(49.000000, 46.000000)" stroke="#666666">
                <g id="50-64" transform="translate(65.681460, 32.961153)">
                    <line x1="0" y1="1.6517368" x2="109.55905" y2="1.6517368" id="Path" stroke-linejoin="round"></line>
                    <polygon id="Path" fill="#666666" points="109.55905 3.3034668 114.097167 1.6517334 109.55905 0"></polygon>
                </g>
                <g id="64-62" transform="translate(238.516110, 32.961153)">
                    <line x1="5.68434189e-14" y1="1.6517368" x2="109.55905" y2="1.6517368" id="Path" stroke-linejoin="round"></line>
                    <polygon id="Path" fill="#666666" points="109.55905 3.3034668 114.097136 1.6517334 109.55905 0"></polygon>
                </g>
                <g id="62-53" transform="translate(411.350740, 32.961153)">
                    <line x1="5.68434189e-14" y1="1.6517368" x2="237.2756" y2="1.6517368" id="Path" stroke-linejoin="round"></line>
                    <polygon id="Path" fill="#666666" points="237.27562 3.3034668 241.813706 1.6517334 237.27562 0"></polygon>
                </g>
                <g id="62-52" transform="translate(402.960630, 53.543320)">
                    <line x1="0" y1="0" x2="79.40613" y2="17.864197" id="Path" stroke-linejoin="round"></line>
                    <polygon id="Path" fill="#666666" points="79.04358 19.47563 83.833558 18.8602278 79.7686776 16.2527296"></polygon>
                </g>
                <g id="52-53" transform="translate(528.737560, 52.762006)">
                    <line x1="0" y1="19.9676937" x2="128.328" y2="1.63512867" id="Path" stroke-linejoin="round"></line>
                    <polygon id="Path" fill="#666666" points="128.56163 3.27026367 132.82048 0.99334717 128.094406 0"></polygon>
                </g>
                <g id="54-51" transform="translate(483.260190, 178.604214)">
                    <line x1="0" y1="1.6517063" x2="52.55121" y2="1.6517063" id="Path" stroke-linejoin="round"></line>
                    <polygon id="Path" fill="#666666" points="52.55121 3.3034363 57.089296 1.6517029 52.55121 0"></polygon>
                </g>
                <g id="51-53" transform="translate(590.724420, 62.461178)">
                    <line x1="0" y1="98.864312" x2="88.458984" y2="3.329858" id="Path" stroke-linejoin="round"></line>
                    <polygon id="Path" fill="#666666" points="89.67094 4.452072 91.5422169 0 87.2469899 2.2076569"></polygon>
                </g>
                <g id="51-68" transform="translate(590.724420, 199.186340)">
                    <line x1="-2.27373675e-13" y1="0" x2="136.6419" y2="96.47635" id="Path" stroke-linejoin="round"></line>
                    <polygon id="Path" fill="#666666" points="135.68924 97.82565 140.349091 99.093808 137.594635 95.1270416"></polygon>
                </g>
                <g id="50-60" transform="translate(57.291330, 53.543320)">
                    <line x1="0" y1="0" x2="43.715378" y2="110.57768" id="Path" stroke-linejoin="round"></line>
                    <polygon id="Path" fill="#666666" points="42.17933 111.18495 45.383813 114.797957 45.251443 109.970442"></polygon>
                </g>
                <g id="60-68" transform="translate(143.716540, 207.556430)">
                    <line x1="0" y1="0" x2="554.0352" y2="117.09006" id="Path" stroke-linejoin="round"></line>
                    <polygon id="Path" fill="#666666" points="553.69368 118.70608 558.475235 118.028407 554.376724 115.474024"></polygon>
                </g>
                <g id="65-68" transform="translate(127.873060, 266.788760)">
                    <line x1="0" y1="0" x2="569.7795" y2="58.50525" id="Path" stroke-linejoin="round"></line>
                    <polygon id="Path" fill="#666666" points="569.6107 60.14831 574.293744 58.9687751 569.948102 56.8621467"></polygon>
                </g>
                <g id="50-65" transform="translate(37.035790, 61.384550)">
                    <line x1="-1.42108547e-14" y1="0" x2="40.60534" y2="180.63425" id="Path" stroke-linejoin="round"></line>
                    <polygon id="Path" fill="#666666" points="38.99383 180.99652 41.6006415 185.061858 42.2168524 180.272002"></polygon>
                </g>
                <g id="60-61" transform="translate(123.460980, 126.278193)">
                    <line x1="0" y1="35.5761767" x2="17.783264" y2="3.9554797" id="Path" stroke-linejoin="round"></line>
                    <polygon id="Path" fill="#666666" points="19.22295 4.7651367 20.0078011 0 16.3436013 3.1457825"></polygon>
                </g>
                <g id="61-64" transform="translate(164.450130, 54.583907)">
                    <line x1="0" y1="24.717983" x2="20.97287" y2="3.246395" id="Path" stroke-linejoin="round"></line>
                    <polygon id="Path" fill="#666666" points="22.15445 4.400543 24.1438604 0 19.7912604 2.0922546"></polygon>
                </g>
                <g id="64-63" transform="translate(209.870420, 61.384550)">
                    <line x1="0" y1="2.84217094e-14" x2="43.678772" y2="95.550995" id="Path" stroke-linejoin="round"></line>
                    <polygon id="Path" fill="#666666" points="42.17654 96.23767 45.565456 99.6782828 45.180965 94.8642874"></polygon>
                </g>
                <g id="63-68" transform="translate(296.562990, 200.245390)">
                    <line x1="5.68434189e-14" y1="0" x2="409.65332" y2="105.24713" id="Path" stroke-linejoin="round"></line>
                    <polygon id="Path" fill="#666666" points="409.24231 106.84692 414.048706 106.376369 410.064331 103.647365"></polygon>
                </g>
                <g id="56-68" transform="translate(53.715570, 325.901610)">
                    <line x1="0" y1="0" x2="652.3017" y2="18.756683" id="Path" stroke-linejoin="round"></line>
                    <polygon id="Path" fill="#666666" points="652.25419 20.40771 656.837869 18.8871106 652.34916 17.1056165"></polygon>
                </g>
                <g id="64-66" transform="translate(230.126010, 53.543320)">
                    <line x1="0" y1="2.84217094e-14" x2="47.193573" y2="38.50609" id="Path" stroke-linejoin="round"></line>
                    <polygon id="Path" fill="#666666" points="46.14938 39.78587 50.7097743 41.3750118 48.2377894 37.2262998"></polygon>
                </g>
                <g id="66-62" transform="translate(330.866120, 54.414110)">
                    <line x1="5.68434189e-14" y1="22.5006397" x2="26.766998" y2="2.6989277" id="Path" stroke-linejoin="round"></line>
                    <polygon id="Path" fill="#666666" points="27.74934 4.0268097 30.415325 0 25.7846792 1.3710632"></polygon>
                </g>
                <g id="62-54" transform="translate(382.705080, 61.384550)">
                    <line x1="-5.68434189e-14" y1="0" x2="48.89862" y2="94.60687" id="Path" stroke-linejoin="round"></line>
                    <polygon id="Path" fill="#666666" points="47.43128 95.36527 50.9823054 98.6383108 50.3659114 93.8484548"></polygon>
                </g>
                <g id="74-50">
                    <line x1="0" y1="0" x2="12.403252" y2="11.588791" id="Path" stroke-linejoin="round"></line>
                    <polygon id="Path" fill="#666666" points="11.2756 12.79569 15.719196 14.6869864 13.5309025 10.3818869"></polygon>
                </g>
            </g>
        </g>
    </g>
</svg>