<?xml version="1.0" encoding="UTF-8"?>
<svg width="898px" height="479px" viewBox="0 0 898 479" version="1.1" xmlns="http://www.w3.org/2000/svg" xmlns:xlink="http://www.w3.org/1999/xlink">
    <title>SAP IDOC Diagnostic Nerdlet</title>
    <g id="Page-1" stroke="none" stroke-width="1" fill="none" fill-rule="evenodd">
        <g id="SAP-IDOC-Diagnostic-Nerdlet">
            <g id="nodes">
                <g id="30" transform="translate(140.000000, 101.000000)">
                    <circle id="Oval" fill="#FCCC0A" cx="27.5" cy="27.5" r="27.5"></circle>
                    <text font-family="Menlo-Bold, Menlo" font-size="24" font-weight="bold" letter-spacing="0.456" fill="#000000">
                        <tspan x="13.0947813" y="36">30</tspan>
                    </text>
                </g>
                <g id="03" transform="translate(222.000000, 101.000000)">
                    <circle id="Oval" fill="#00933C" cx="27.5" cy="27.5" r="27.5"></circle>
                    <text font-family="Menlo-Bold, Menlo" font-size="24" font-weight="bold" letter-spacing="0.456" fill="#FFFFFF">
                        <tspan x="13.0947813" y="36">03</tspan>
                    </text>
                </g>
                <g id="18" transform="translate(338.000000, 101.000000)">
                    <circle id="Oval" fill="#00933C" cx="27.5" cy="27.5" r="27.5"></circle>
                    <text font-family="Menlo-Bold, Menlo" font-size="24" font-weight="bold" letter-spacing="0.456" fill="#FFFFFF">
                        <tspan x="13.0947813" y="36">18</tspan>
                    </text>
                </g>
                <g id="31" transform="translate(811.000000, 424.000000)">
                    <circle id="Oval" fill="#00933C" cx="27.5" cy="27.5" r="27.5"></circle>
                    <text font-family="Menlo-Bold, Menlo" font-size="24" font-weight="bold" letter-spacing="0.456" fill="#FFFFFF">
                        <tspan x="13.0947813" y="36">31</tspan>
                    </text>
                </g>
                <g id="37" transform="translate(28.000000, 424.000000)">
                    <circle id="Oval" fill="#00933C" cx="27.5" cy="27.5" r="27.5"></circle>
                    <text font-family="Menlo-Bold, Menlo" font-size="24" font-weight="bold" letter-spacing="0.456" fill="#FFFFFF">
                        <tspan x="13.0947813" y="36">37</tspan>
                    </text>
                </g>
                <g id="02" transform="translate(155.000000, 354.000000)">
                    <circle id="Oval" fill="#EE352E" cx="27.5" cy="27.5" r="27.5"></circle>
                    <text font-family="Menlo-Bold, Menlo" font-size="24" font-weight="bold" letter-spacing="0.456" fill="#FFFFFF">
                        <tspan x="13.0947813" y="36">02</tspan>
                    </text>
                </g>
                <g id="29" transform="translate(77.000000, 381.000000)">
                    <circle id="Oval" fill="#EE352E" cx="27.5" cy="27.5" r="27.5"></circle>
                    <text font-family="Menlo-Bold, Menlo" font-size="24" font-weight="bold" letter-spacing="0.456" fill="#FFFFFF">
                        <tspan x="13.0947813" y="36">29</tspan>
                    </text>
                </g>
                <g id="20" transform="translate(227.000000, 322.000000)">
                    <circle id="Oval" fill="#EE352E" cx="27.5" cy="27.5" r="27.5"></circle>
                    <text font-family="Menlo-Bold, Menlo" font-size="24" font-weight="bold" letter-spacing="0.456" fill="#FFFFFF">
                        <tspan x="13.0947813" y="36">20</tspan>
                    </text>
                </g>
                <g id="04" transform="translate(615.000000, 0.000000)">
                    <circle id="Oval" fill="#EE352E" cx="27.5" cy="27.5" r="27.5"></circle>
                    <text font-family="Menlo-Bold, Menlo" font-size="24" font-weight="bold" letter-spacing="0.456" fill="#FFFFFF">
                        <tspan x="13.0947813" y="36">04</tspan>
                    </text>
                </g>
                <g id="24" transform="translate(434.000000, 101.000000)">
                    <circle id="Oval" fill="#00933C" cx="27.5" cy="27.5" r="27.5"></circle>
                    <text font-family="Menlo-Bold, Menlo" font-size="24" font-weight="bold" letter-spacing="0.456" fill="#FFFFFF">
                        <tspan x="13.0947813" y="36">24</tspan>
                    </text>
                </g>
                <g id="39" transform="translate(341.000000, 227.000000)">
                    <circle id="Oval" fill="#EE352E" cx="27.5" cy="27.5" r="27.5"></circle>
                    <text font-family="Menlo-Bold, Menlo" font-size="24" font-weight="bold" letter-spacing="0.456" fill="#FFFFFF">
                        <tspan x="13.0947813" y="36">39</tspan>
                    </text>
                </g>
                <g id="41" transform="translate(421.000000, 227.000000)">
                    <circle id="Oval" fill="#00933C" cx="27.5" cy="27.5" r="27.5"></circle>
                    <text font-family="Menlo-Bold, Menlo" font-size="24" font-weight="bold" letter-spacing="0.456" fill="#FFFFFF">
                        <tspan x="13.0947813" y="36">41</tspan>
                    </text>
                </g>
                <g id="09" transform="translate(718.000000, 163.000000)">
                    <circle id="Oval" fill="#EE352E" cx="27.5" cy="27.5" r="27.5"></circle>
                    <text font-family="Menlo-Bold, Menlo" font-size="24" font-weight="bold" letter-spacing="0.456" fill="#FFFFFF">
                        <tspan x="13.0947813" y="36">09</tspan>
                    </text>
                </g>
                <g id="12" transform="translate(502.000000, 227.000000)">
                    <circle id="Oval" fill="#00933C" cx="27.5" cy="27.5" r="27.5"></circle>
                    <text font-family="Menlo-Bold, Menlo" font-size="24" font-weight="bold" letter-spacing="0.456" fill="#FFFFFF">
                        <tspan x="13.0947813" y="36">12</tspan>
                    </text>
                </g>
                <g id="40" transform="translate(489.000000, 332.000000)">
                    <circle id="Oval" fill="#EE352E" cx="27.5" cy="27.5" r="27.5"></circle>
                    <text font-family="Menlo-Bold, Menlo" font-size="24" font-weight="bold" letter-spacing="0.456" fill="#FFFFFF">
                        <tspan x="13.0947813" y="36">40</tspan>
                    </text>
                </g>
                <g id="22" transform="translate(586.000000, 285.000000)">
                    <circle id="Oval" fill="#00933C" cx="27.5" cy="27.5" r="27.5"></circle>
                    <text font-family="Menlo-Bold, Menlo" font-size="24" font-weight="bold" letter-spacing="0.456" fill="#FFFFFF">
                        <tspan x="13.0947813" y="36">22</tspan>
                    </text>
                </g>
                <g id="14" transform="translate(667.000000, 313.000000)">
                    <circle id="Oval" fill="#00933C" cx="27.5" cy="27.5" r="27.5"></circle>
                    <text font-family="Menlo-Bold, Menlo" font-size="24" font-weight="bold" letter-spacing="0.456" fill="#FFFFFF">
                        <tspan x="13.0947813" y="36">14</tspan>
                    </text>
                </g>
                <g id="16" transform="translate(758.000000, 358.000000)">
                    <circle id="Oval" fill="#00933C" cx="27.5" cy="27.5" r="27.5"></circle>
                    <text font-family="Menlo-Bold, Menlo" font-size="24" font-weight="bold" letter-spacing="0.456" fill="#FFFFFF">
                        <tspan x="13.0947813" y="36">16</tspan>
                    </text>
                </g>
                <g id="17" transform="translate(843.000000, 332.000000)">
                    <circle id="Oval" fill="#EE352E" cx="27.5" cy="27.5" r="27.5"></circle>
                    <text font-family="Menlo-Bold, Menlo" font-size="24" font-weight="bold" letter-spacing="0.456" fill="#FFFFFF">
                        <tspan x="13.0947813" y="36">17</tspan>
                    </text>
                </g>
                <g id="15" transform="translate(820.000000, 273.000000)">
                    <circle id="Oval" fill="#EE352E" cx="27.5" cy="27.5" r="27.5"></circle>
                    <text font-family="Menlo-Bold, Menlo" font-size="24" font-weight="bold" letter-spacing="0.456" fill="#FFFFFF">
                        <tspan x="13.0947813" y="36">15</tspan>
                    </text>
                </g>
                <g id="10" transform="translate(582.000000, 190.000000)">
                    <circle id="Oval" fill="#00933C" cx="27.5" cy="27.5" r="27.5"></circle>
                    <text font-family="Menlo-Bold, Menlo" font-size="24" font-weight="bold" letter-spacing="0.456" fill="#FFFFFF">
                        <tspan x="13.0947813" y="36">10</tspan>
                    </text>
                </g>
                <g id="11" transform="translate(661.000000, 233.000000)">
                    <circle id="Oval" fill="#EE352E" cx="27.5" cy="27.5" r="27.5"></circle>
                    <text font-family="Menlo-Bold, Menlo" font-size="24" font-weight="bold" letter-spacing="0.456" fill="#FFFFFF">
                        <tspan x="13.0947813" y="36">11</tspan>
                    </text>
                </g>
                <g id="08" transform="translate(620.000000, 123.000000)">
                    <circle id="Oval" fill="#00933C" cx="27.5" cy="27.5" r="27.5"></circle>
                    <text font-family="Menlo-Bold, Menlo" font-size="24" font-weight="bold" letter-spacing="0.456" fill="#FFFFFF">
                        <tspan x="13.0947813" y="36">08</tspan>
                    </text>
                </g>
                <g id="06" transform="translate(519.000000, 95.000000)">
                    <circle id="Oval" fill="#00933C" cx="27.5" cy="27.5" r="27.5"></circle>
                    <text font-family="Menlo-Bold, Menlo" font-size="24" font-weight="bold" letter-spacing="0.456" fill="#FFFFFF">
                        <tspan x="13.0947813" y="36">06</tspan>
                    </text>
                </g>
                <g id="04-2" transform="translate(755.000000, 60.000000)">
                    <circle id="Oval" fill="#EE352E" cx="27.5" cy="27.5" r="27.5"></circle>
                    <text id="04" font-family="Menlo-Bold, Menlo" font-size="24" font-weight="bold" letter-spacing="0.456" fill="#FFFFFF">
                        <tspan x="13.0947813" y="36">04</tspan>
                    </text>
                </g>
                <g id="42" transform="translate(0.000000, 53.000000)">
                    <circle id="Oval" fill="#FCCC0A" cx="27.5" cy="27.5" r="27.5"></circle>
                    <text font-family="Menlo-Bold, Menlo" font-size="24" font-weight="bold" letter-spacing="0.456" fill="#000000">
                        <tspan x="13.0947813" y="36">42</tspan>
                    </text>
                </g>
                <g id="01" transform="translate(57.000000, 101.000000)">
                    <circle id="Oval" fill="#FCCC0A" cx="27.5" cy="27.5" r="27.5"></circle>
                    <text font-family="Menlo-Bold, Menlo" font-size="24" font-weight="bold" letter-spacing="0.456" fill="#000000">
                        <tspan x="13.0947813" y="36">01</tspan>
                    </text>
                </g>
                <g id="32" transform="translate(287.000000, 170.000000)">
                    <circle id="Oval" fill="#00933C" cx="27.5" cy="27.5" r="27.5"></circle>
                    <text font-family="Menlo-Bold, Menlo" font-size="24" font-weight="bold" letter-spacing="0.456" fill="#FFFFFF">
                        <tspan x="13.0947813" y="36">32</tspan>
                    </text>
                </g>
                <g id="33" transform="translate(289.000000, 260.152231)">
                    <circle id="Oval" fill="#00933C" cx="27.5" cy="27.5" r="27.5"></circle>
                    <text font-family="Menlo-Bold, Menlo" font-size="24" font-weight="bold" letter-spacing="0.456" fill="#FFFFFF">
                        <tspan x="13.0947813" y="36">33</tspan>
                    </text>
                    <text id="999" font-family="Menlo-Regular, Menlo" font-size="12" font-weight="normal" letter-spacing="0.228" fill="#FFFFFF">
                        <tspan x="16.8210859" y="47">999</tspan>
                    </text>
                </g>
            </g>
            <g id="links" transform="translate(49.252920, 27.390564)" stroke="#666666">
                <g id="01-30" transform="translate(65.681470, 98.632249)">
                    <line x1="0" y1="1.6517368" x2="18.40944" y2="1.6517368" id="Path" stroke-linejoin="round"></line>
                    <polygon id="Path" fill="#666666" points="18.40944 3.3034668 22.947541 1.6517334 18.40944 0"></polygon>
                </g>
                <g id="30-03" transform="translate(147.367810, 98.634869)">
                    <line x1="0" y1="1.6517368" x2="19.952759" y2="1.6517368" id="Path" stroke-linejoin="round"></line>
                    <polygon id="Path" fill="#666666" points="19.95276 3.3034668 24.490861 1.6517334 19.95276 0"></polygon>
                </g>
                <g id="30-02" transform="translate(118.722150, 127.058256)">
                    <line x1="0" y1="2.84217094e-14" x2="13.595306" y2="193.54233" id="Path" stroke-linejoin="round"></line>
                    <polygon id="Path" fill="#666666" points="11.94764 193.65805 13.9133077 198.069244 15.2429738 193.426574"></polygon>
                </g>
                <g id="02-31" transform="translate(161.392760, 353.357456)">
                    <line x1="0" y1="-5.68434189e-14" x2="595.11127" y2="69.44629" id="Path" stroke-linejoin="round"></line>
                    <polygon id="Path" fill="#666666" points="594.91987 71.08688 599.618784 69.9722865 595.302744 67.805691"></polygon>
                </g>
                <g id="37-31" transform="translate(34.726084, 421.852719)">
                    <line x1="0" y1="1.6517368" x2="721.71655" y2="1.6517368" id="Path" stroke-linejoin="round"></line>
                    <polygon id="Path" fill="#666666" points="721.716556 3.3034668 726.254642 1.6517334 721.716556 0"></polygon>
                </g>
                <g id="29-31" transform="translate(83.501680, 380.129116)">
                    <line x1="0" y1="5.68434189e-14" x2="672.97284" y2="42.98761" id="Path" stroke-linejoin="round"></line>
                    <polygon id="Path" fill="#666666" points="672.86753 44.63596 677.501685 43.2768902 673.078101 41.3392376"></polygon>
                </g>
                <g id="01-29" transform="translate(37.035790, 127.055636)">
                    <line x1="0" y1="-2.84217094e-14" x2="17.35559" y2="220.31775" id="Path" stroke-linejoin="round"></line>
                    <polygon id="Path" fill="#666666" points="15.708955 220.44745 17.7119762 224.841829 19.0022136 220.18802"></polygon>
                </g>
                <g id="03-20" transform="translate(201.957040, 127.058256)">
                    <line x1="5.68434189e-14" y1="0" x2="4.707428" y2="161.81357" id="Path" stroke-linejoin="round"></line>
                    <polygon id="Path" fill="#666666" points="3.0564 161.8616 4.8393895 166.349729 6.358463 161.765531"></polygon>
                </g>
                <g id="20-31" transform="translate(227.099740, 340.571336)">
                    <line x1="-5.68434189e-14" y1="1.13686838e-13" x2="537.78925" y2="63.298615" id="Path" stroke-linejoin="round"></line>
                    <polygon id="Path" fill="#666666" points="537.59614 64.93904 542.296213 63.8291157 537.982309 61.6582173"></polygon>
                </g>
                <g id="18-04" transform="translate(338.233580, -0.000000)">
                    <line x1="0" y1="81.3535658" x2="222.22705" y2="1.55454575" id="Path" stroke-linejoin="round"></line>
                    <polygon id="Path" fill="#666666" points="222.7853 3.10909275 226.49813 0.02085495 221.668845 0"></polygon>
                </g>
                <g id="18-24" transform="translate(346.623730, 98.632249)">
                    <line x1="0" y1="1.6517368" x2="31.165344" y2="1.6517368" id="Path" stroke-linejoin="round"></line>
                    <polygon id="Path" fill="#666666" points="31.16535 3.3034668 35.703436 1.6517334 31.16535 0"></polygon>
                </g>
                <g id="39-41" transform="translate(348.316630, 225.168969)">
                    <line x1="0" y1="1.6517368" x2="17.338593" y2="1.6517368" id="Path" stroke-linejoin="round"></line>
                    <polygon id="Path" fill="#666666" points="17.33859 3.3034668 21.876676 1.6517334 17.33859 0"></polygon>
                </g>
                <g id="03-18" transform="translate(230.602730, 98.634869)">
                    <line x1="0" y1="1.6517368" x2="52.740143" y2="1.6517368" id="Path" stroke-linejoin="round"></line>
                    <polygon id="Path" fill="#666666" points="52.74015 3.3034668 57.2782665 1.6517334 52.74015 0"></polygon>
                </g>
                <g id="18-39" transform="translate(317.887830, 127.055636)">
                    <line x1="0.09021" y1="0" x2="1.6512757" y2="67.00949" id="Path" stroke-linejoin="round"></line>
                    <polygon id="Path" fill="#666666" points="0 67.04797 1.756958 71.546368 3.3025513 66.97102"></polygon>
                </g>
                <g id="39-40" transform="translate(339.926480, 245.751156)">
                    <line x1="0" y1="0" x2="103.3259" y2="63.35196" id="Path" stroke-linejoin="round"></line>
                    <polygon id="Path" fill="#666666" points="102.4625 64.76008 107.194678 65.7240387 104.189246 61.9438263"></polygon>
                </g>
                <g id="22-14" transform="translate(593.617140, 284.970336)">
                    <line x1="0" y1="5.68434189e-14" x2="25.90332" y2="7.183899" id="Path" stroke-linejoin="round"></line>
                    <polygon id="Path" fill="#666666" points="25.46184 8.77554 30.276293 8.3966948 26.3447134 5.5922514"></polygon>
                </g>
                <g id="22-15" transform="translate(585.226980, 266.039916)">
                    <line x1="0" y1="0" x2="179.6095" y2="5.82135" id="Path" stroke-linejoin="round"></line>
                    <polygon id="Path" fill="#666666" points="179.55605 7.47222 184.145222 5.9683748 179.663045 4.1704927"></polygon>
                </g>
                <g id="14-16" transform="translate(665.804510, 331.629086)">
                    <line x1="0" y1="0" x2="38.708984" y2="14.103455" id="Path" stroke-linejoin="round"></line>
                    <polygon id="Path" fill="#666666" points="38.14347 15.6554 42.9728157 15.6570174 39.2743904 12.5515486"></polygon>
                </g>
                <g id="14-17" transform="translate(674.182750, 309.680296)">
                    <line x1="0" y1="5.68434189e-14" x2="113.21338" y2="20.415527" id="Path" stroke-linejoin="round"></line>
                    <polygon id="Path" fill="#666666" points="112.92023 22.04104 117.679446 21.2208801 113.506534 18.7900024"></polygon>
                </g>
                <g id="10-12" transform="translate(502.442900, 189.823346)">
                    <line x1="30.4458804" y1="0" x2="3.9442324" y2="15.07988" id="Path" stroke-linejoin="round"></line>
                    <polygon id="Path" fill="#666666" points="3.1273804 13.64431 1.13686838e-13 17.3242416 4.7611694 16.5154953"></polygon>
                </g>
                <g id="10-11" transform="translate(590.180120, 189.823346)">
                    <line x1="-1.13686838e-13" y1="0" x2="25.090637" y2="20.205276" id="Path" stroke-linejoin="round"></line>
                    <polygon id="Path" fill="#666666" points="24.05469 21.49175 28.6251856 23.051595 26.1266504 18.918813"></polygon>
                </g>
                <g id="12-22" transform="translate(501.164010, 245.745906)">
                    <line x1="0" y1="0" x2="38.119873" y2="17.750671" id="Path" stroke-linejoin="round"></line>
                    <polygon id="Path" fill="#666666" points="37.42261 19.24803 42.2338283 19.666365 38.8171413 16.2533096"></polygon>
                </g>
                <g id="08-10" transform="translate(562.443907, 141.325956)">
                    <line x1="16.2287132" y1="0" x2="2.8096462" y2="17.020538" id="Path" stroke-linejoin="round"></line>
                    <polygon id="Path" fill="#666666" points="1.5125732 15.9979 -2.27373675e-13 20.5842647 4.1067505 18.0431727"></polygon>
                </g>
                <g id="08-09" transform="translate(627.573880, 122.395526)">
                    <line x1="0" y1="0" x2="44.138184" y2="18.556534" id="Path" stroke-linejoin="round"></line>
                    <polygon id="Path" fill="#666666" points="43.498 20.07916 48.3216084 20.3153203 44.7783344 17.0338873"></polygon>
                </g>
                <g id="24-06" transform="translate(441.068610, 94.308594)">
                    <line x1="1.13686838e-13" y1="5.9767018" x2="21.61438" y2="1.6191578" id="Path" stroke-linejoin="round"></line>
                    <polygon id="Path" fill="#666666" points="21.94077 3.2383118 26.0629624 0.7223053 21.287938 0"></polygon>
                </g>
                <g id="06-04" transform="translate(525.861280, 58.539756)">
                    <line x1="0" y1="36.1943398" x2="173.35999" y2="1.6198298" id="Path" stroke-linejoin="round"></line>
                    <polygon id="Path" fill="#666666" points="173.683 3.2396698 177.810441 0.7322464 173.036943 -1.42108547e-14"></polygon>
                </g>
                <g id="06-08" transform="translate(517.471140, 113.664516)">
                    <line x1="0" y1="0" x2="46.89911" y2="7.7466125" id="Path" stroke-linejoin="round"></line>
                    <polygon id="Path" fill="#666666" points="46.62988 9.37627 51.376523 8.48617906 47.168271 6.11696206"></polygon>
                </g>
                <g id="03-32" transform="translate(222.212630, 119.217006)">
                    <line x1="0" y1="0" x2="18.636292" y2="26.969406" id="Path" stroke-linejoin="round"></line>
                    <polygon id="Path" fill="#666666" points="17.2774 27.90839 21.2161512 30.7028389 19.9951429 26.0303993"></polygon>
                </g>
                <g id="32-33" transform="translate(262.853880, 196.822036)">
                    <line x1="1.65174" y1="-2.84217094e-14" x2="1.65174" y2="28.141739" id="Path" stroke-linejoin="round"></line>
                    <polygon id="Path" fill="#666666" points="0 28.14174 1.6517334 32.679826 3.3034363 28.14174"></polygon>
                </g>
                <g id="42-01" transform="translate(0.000000, 72.007042)">
                    <line x1="0" y1="0" x2="11.546173" y2="6.4337997" id="Path" stroke-linejoin="round"></line>
                    <polygon id="Path" fill="#666666" points="10.74218 7.876654 15.510376 8.64273676 12.3501663 4.99094236"></polygon>
                </g>
            </g>
        </g>
    </g>
</svg>